<?xml version="1.0" encoding="UTF-8"?>
<svg id="Layer_2" xmlns="http://www.w3.org/2000/svg" viewBox="0 0 1080 1080">
  <rect width="1080" height="1080" style="fill: #f9efe3;"/>
  <path d="M613.601,764.9894c.918-.936,230.476-65.927,225.313-251.338-3.286-118.031-65.629-143.523-141.8-223.992-76.171-80.469-116.551-107.604-221.171-80.469-104.621,27.135-124.464,100.356-150.161,146.204-25.696,45.849-113.316,95.351-94.043,200.148,19.272,104.798,69.897,176.79,149.739,193.632,79.842,16.842,232.123,15.815,232.123,15.815" style="fill: #f9e6d1;"/>
  <path d="M865.6681,575.9636h-353.835c-5.637,0-10.206-4.57-10.206-10.2069v-244.439c0-5.637,4.569-10.206,10.206-10.206h353.835c5.637,0,10.207,4.569,10.207,10.206v244.439c0,5.637-4.57,10.2069-10.207,10.2069" style="fill: #090909;"/>
  <path d="M852.748,536.8115h-329.146c-6.413,0-11.612-5.199-11.612-11.611v-190.963c0-6.412,5.199-11.611,11.612-11.611h329.146c6.413,0,11.611,5.199,11.611,11.611v190.963c0,6.412-5.198,11.611-11.611,11.611" style="fill: #f9f7f4;"/>
  <rect x="525.809" y="332.991" width="324.732" height="18.424" style="fill: #d4d4d4;"/>
  <rect x="798.722" y="368.688" width="51.819" height="150.851" style="fill: #d4d4d4;"/>
  <path d="M660.4,394.13l-22.89,24.59-27.38-23.36c-4.49,5.61-7.17,12.74-7.17,20.48,0,18.13,14.69,32.82,32.8199,32.82s32.82-14.69,32.82-32.82c0-8.32-3.1-15.93-8.2-21.71" style="fill: #3a3a3a;"/>
  <path d="M660.4,385.13l-22.89,24.59-27.38-23.36c6.02-7.52,15.27-12.34,25.65-12.34,9.8,0,18.6,4.3,24.6201,11.11" style="fill: #566aaf;"/>
  <path d="M752.4805,451.4072l-13.019-53.0181c-.0825-.3359-.3325-.6055-.6616-.7124-.3281-.1069-.689-.0371-.9541.186l-35.3452,29.8032c-.2593.2188-.3901.5542-.3477.8906.043.3369.2534.6289.5596.7754l48.3643,23.2148c.1377.0664.2856.0986.4326.0986.2251,0,.4487-.0762.6304-.2236.3003-.2441.4331-.6392.3408-1.0146ZM704.9717,428.1982l32.9316-27.7676,12.1299,49.397-45.0615-21.6294Z"/>
  <path d="M726.7607,476.7139c-.6353-.5381-15.9004-12.9307-44.9883,8.0127-32.6113,23.4785-57.7139,23.5542-74.6064.2251-.3237-.4468-.9487-.5474-1.3965-.2236-.4473.3242-.5474.9492-.2236,1.3965,8.8628,12.2393,19.8281,18.3584,32.8115,18.3574,12.9009-.001,27.7939-6.0449,44.584-18.1323,27.7202-19.9595,42.3779-8.2339,42.5298-8.1069.4224.354,1.0508.3013,1.4067-.1196.3569-.4219.3042-1.0527-.1172-1.4092Z"/>
  <path d="M521,906l-16,32,38.434,15.941s-15.928,6.847-26.292,4.544c-10.364-2.303-38.864-16.339-38.864-16.339l8.924-36.632,33.798.486Z" style="fill: #fea386;"/>
  <path d="M609,890l-5,47,36.388,15.229s-15.462,6.646-25.523,4.411c-10.06-2.236-36.865-16.64-36.865-16.64v-44l31-6Z" style="fill: #fea386;"/>
  <path d="M479.1414,938.9086s27.637,16.121,55.274,12.667c0,0,17.273,1.151,21.879,16.121l-46.062,1.152-16.121-11.515,1.151,12.666h-16.121s-3.455-21.879,0-31.091" style="fill: #090909;"/>
  <path d="M577.9767,937.6364s26.8279,15.65,53.6559,12.296c0,0,16.767,1.118,21.239,15.65l-44.714,1.118-15.649-11.179,1.118,12.296h-15.65s-3.353-21.238,0-30.181" style="fill: #090909;"/>
  <path d="M489,666s97.592-2.316,114,21c21.879,31.091,14.174,239.363,14.174,239.363l-50.174-.363s-6.251-153.943-20.07-180.428c-13.818-26.485-57.93-79.572-57.93-79.572" style="fill: #090909;"/>
  <path d="M333.5029,666.2985s-42.746,56.004-10.503,91.702c32.243,35.697,191-1,191-1l-41.162,169.544,51.162.456s88.174-167.428,69.749-223.853c-15.399-47.159-132.426-41.455-132.426-41.455l-127.82,4.606Z" style="fill: #090909;"/>
  <path d="M912.2845,968.8178h-2.273c-4.142,0-7.5-3.358-7.5-7.5v-306.868h17.273v306.868c0,4.142-3.358,7.5-7.5,7.5" style="fill: #3a3a3a;"/>
  <path d="M790.2221,968.8178h-2.273c-4.142,0-7.5-3.358-7.5-7.5v-306.868h17.273v306.868c0,4.142-3.358,7.5-7.5,7.5" style="fill: #3a3a3a;"/>
  <path d="M971.5,659.2678H360.216c-6.351,0-11.5-5.149-11.5-11.5v-3.485c0-6.352,5.149-11.5,11.5-11.5h611.284c6.351,0,11.5,5.148,11.5,11.5v3.485c0,6.351-5.149,11.5-11.5,11.5" style="fill: #090909;"/>
  <path d="M183.1712,967.0298l-3.179-1.147c-3.637-1.312-5.522-5.323-4.21-8.96l65.106-180.484c1.312-3.637,5.324-5.522,8.96-4.21l3.18,1.147c3.636,1.312,5.521,5.323,4.209,8.96l-65.106,180.485c-1.312,3.636-5.323,5.521-8.96,4.209" style="fill: #3a3a3a;"/>
  <path d="M449.8919,967.7285l3.238-1.168c3.637-1.312,5.522-5.324,4.21-8.96l-65.359-181.183c-1.311-3.637-5.323-5.522-8.959-4.21l-3.239,1.168c-3.637,1.312-5.521,5.324-4.209,8.96l65.358,181.184c1.312,3.636,5.323,5.521,8.96,4.209" style="fill: #3a3a3a;"/>
  <path d="M386.4734,422.1736s9.212,27.637,1.152,47.213c0,0,21.879,18.424,41.455-1.152,0,0-8.061-40.303-2.303-59.879,0,0-19.758,15.073-40.304,13.818" style="fill: #e87754;"/>
  <path d="M1013,967.5H67c-.5522,0-1,.4478-1,1s.4478,1,1,1h946c.5522,0,1-.4478,1-1s-.4478-1-1-1Z" style="fill: #090909;"/>
  <path d="M468.2322,366.9s19.576,62.183-3.455,79.4561c-23.03,17.2729-46.061,3.454-52.97-20.728,0,0,31.091-66.789,56.425-58.728" style="fill: #fea386;"/>
  <path d="M455.5654,397.9914s32.243-20.728,16.121-50.667c-16.121-29.94-57.576-21.88-72.546-9.213,0,0,.806-28.506-23.031-36.849-23.03-8.0601-54.122,14.97-42.606,46.062,7.21,19.467,32.242,17.273,32.242,17.273,0,0-12.97,12.715-11.515,34.546,2.303,34.546,36.849,51.819,57.577,26.485,20.727-25.334,43.758-27.637,43.758-27.637" style="fill: #090909;"/>
  <path d="M365.7458,469.3864s-21.879,0-48.364,35.6981c-21.003,28.308-62.183,85.213-67.941,111.6979-5.757,26.485,10.364,44.91,38.001,44.91s62.183-11.515,62.183-11.515l6.909-39.153-46.062,4.607,34.546-39.152,20.728-107.093Z" style="fill: #566aaf;"/>
  <path d="M460.1715,400.2944c0,14.627-11.858,26.485-26.485,26.485s-26.485-11.858-26.485-26.485,11.857-26.485,26.485-26.485,26.485,11.858,26.485,26.485" style="fill: #fff;"/>
  <path d="M399,338s21.716,6.884,26,39c0,0,8.397-1.753,16.962-.529,0,0,.178-36.683-27.962-46.471,0,0-9,3-15,8" style="fill: #fff;"/>
  <path d="M454.2476,788.3609h-131.108v-25.5h156.608c0,14.083-11.417,25.5-25.5,25.5" style="fill: #ff6d24;"/>
  <path d="M334.6545,788.3609h-126.361c-7.483,0-13.866-5.418-15.082-12.802l-37.775-229.484c-3.237-19.663,11.935-37.536,31.863-37.536h73.883c15.81,0,29.295,11.446,31.863,27.046l41.609,252.776Z" style="fill: #ff6d24;"/>
  <polygon points="757.2669 633.5402 668.5989 638.1462 647.8708 564.4482 739.9939 564.4482 757.2669 633.5402" style="fill: #090909;"/>
  <rect x="525.809" y="368.688" width="12.667" height="150.851" style="fill: #d4d4d4;"/>
  <path d="M594,598.3251s35.698-14.365,51.819,18.675h-51.819v-18.675Z" style="fill: #fea386;"/>
  <path d="M598.3554,593.7519l1.152,25.334h-12.667s-20.728,21.879-63.335,8.06c-42.606-13.818-69.092-69.091-69.092-69.091l13.819,107.092s-76.001,48.364-140.487,13.818l2.303-95.577s-2.303-69.092,4.606-90.971c6.909-21.879,46.061-27.637,71.395-29.94,25.334-2.303,48.364-5.757,71.395,28.789,23.031,34.546,23.031,72.546,63.334,76.001,40.304,3.454,41.456,18.424,43.759,27.637l13.8181-1.152Z" style="fill: #566aaf;"/>
  <path d="M669,634h-55v-4c0-9.389,7.611-17,17-17h21c9.389,0,17,7.611,17,17v4Z" style="fill: #090909;"/>
  <path d="M922.0773,571.9148s-6.701-53.462,40.211-63.058c0,0,5.939,49.351-40.211,63.058" style="fill: #bac559;"/>
  <path d="M905.3538,571.7753s-41.1541-11.742-32.999-67.114c0,0,45.256,20.559,32.999,67.114" style="fill: #7d8846;"/>
  <path d="M913.2932,572.8263s-49.0031-31.796-16.197-100.788c0,0,50.828,44.943,16.197,100.788" style="fill: #bac559;"/>
  <path d="M912.3036,572.641s-34.774-46.937,20.105-100.082c0,0,31.882,59.89-20.105,100.082" style="fill: #7d8846;"/>
  <path d="M949.1962,570.3237v58.508c0,2.885-2.3311,5.216-5.216,5.216h-62.627c-2.885,0-5.216-2.331-5.216-5.216v-58.508c0-2.885,2.331-5.216,5.216-5.216h62.627c2.8849,0,5.216,2.331,5.216,5.216" style="fill: #ff8b23;"/>
  <path d="M854.3585,593.2833v36.09c0,1.845-1.5031,3.337-3.348,3.337h-26.836c-1.855,0-3.347-1.492-3.347-3.337v-36.09c0-1.855,1.492-3.348,3.347-3.348h26.836c1.845,0,3.348,1.493,3.348,3.348" style="fill: #37302e;"/>
  <path d="M820.3889,598.4897c-6.259,0-11.332,5.073-11.332,11.331s5.073,11.331,11.332,11.331,11.331-5.073,11.331-11.331-5.073-11.331-11.331-11.331M820.5169,616.3987c-3.704,0-6.7061-3.002-6.7061-6.706s3.002-6.706,6.7061-6.706,6.706,3.002,6.706,6.706-3.002,6.706-6.706,6.706" style="fill: #37302e;"/>
</svg>