<?xml version="1.0" encoding="utf-8"?>
<!-- Generator: Adobe Illustrator 26.3.1, SVG Export Plug-In . SVG Version: 6.00 Build 0)  -->
<svg version="1.1" id="Layer_1" xmlns="http://www.w3.org/2000/svg" xmlns:xlink="http://www.w3.org/1999/xlink" x="0px" y="0px"
	 viewBox="0 0 1500 1500" style="enable-background:new 0 0 1500 1500;" xml:space="preserve">
<g>
	<path style="fill:#283238;" d="M376.666,688.6l0.2,0.1l14.9-16.3l-0.4-0.1c-6.7-2.4-22.6-10.1-26.2-28.7
		c-2.8-14.4-3.2-39.5,7.9-45.6c4.1-2.3,9.2-1.6,15,2l0.1,0.1l0.1-0.1c7.4-3.2,15.5-4.2,23.4-2.8l0.4,0.1l-0.1-0.4
		c-6.9-18.4-13.5-45.9-5.4-72.5c6.8-22.6,33-18.8,66.1-14.1c35.9,5.1,80.7,11.5,121.5-10.7c5.6-3.1,12.4-3.2,18-0.5
		c6.5,3.2,10.7,9.6,10.9,16.8c0.2,7.1,0.3,16.8,0.3,31.5v1.1l0.5-1c8.1-17,20.5-50.6,12.6-84.5c-11-47.2-83-76.3-175.2-70.8
		c-47.7,2.8-77.5,26.2-94.2,45.3c-18,20.7-24.9,40.9-25,41.1c-0.3,0.8-0.9,1.4-1.8,1.5c-8.9,1.5-15.9,6.3-20.7,14.3
		c-15.5,25.8-7.1,82.2,8.1,126.7C344.666,670.1,369.466,685.1,376.666,688.6z"/>
	<path style="fill:#DEF2FF;" d="M1157.566,991.1c20.2,11.7,42.6,17.6,65.3,17.6c11.4,0,22.8-1.5,34.1-4.5c33.8-9.1,62-30.7,79.5-61
		s22.1-65.6,13.1-99.4c-9.1-33.8-30.7-62-61-79.5c-20-11.5-42.5-17.6-65.3-17.6c-11.4,0-22.9,1.5-34.1,4.5
		c-33.8,9.1-62,30.7-79.5,61s-22.1,65.6-13.1,99.4C1105.566,945.4,1127.266,973.6,1157.566,991.1z M1211.966,935.2
		c-2.6,4.4-6.7,7.6-11.6,8.9c-1.6,0.4-3.3,0.7-5,0.7c-8.7,0-16.3-5.8-18.5-14.2c-1.3-4.9-0.6-10.1,1.9-14.5s6.7-7.6,11.6-8.9
		c1.7-0.4,3.3-0.7,5-0.7c3.3,0,6.6,0.9,9.5,2.6c4.4,2.6,7.6,6.7,8.9,11.6C1215.166,925.6,1214.466,930.8,1211.966,935.2z
		 M1248.466,919.8c-1.2,0.3-2.4-0.4-2.8-1.6c-3.9-14.6-13.2-26.7-26.3-34.3c-8.7-5-18.4-7.6-28.2-7.6c-4.9,0-9.8,0.6-14.7,1.9
		c-1.2,0.3-2.4-0.4-2.8-1.6c-0.3-1.2,0.4-2.4,1.6-2.8c32.5-8.7,66,10.6,74.7,43.1C1250.466,918.2,1249.666,919.5,1248.466,919.8z
		 M1280.966,911.1c-1.2,0.3-2.4-0.4-2.8-1.6c-6.2-23.2-21.1-42.6-42-54.6c-13.9-8-29.3-12.1-44.9-12.1c-7.8,0-15.6,1-23.4,3.1
		c-1.2,0.3-2.4-0.4-2.8-1.6c-0.3-1.2,0.4-2.4,1.6-2.8c24.4-6.5,49.8-3.2,71.7,9.5c21.9,12.6,37.5,33,44.1,57.4
		C1282.866,909.5,1282.166,910.8,1280.966,911.1z M1158.066,809.1c68.2-18.3,138.6,22.4,156.9,90.6c0.3,1.2-0.4,2.4-1.6,2.8
		c-1.2,0.3-2.4-0.4-2.8-1.6c-14.8-55.2-64.8-91.6-119.4-91.6c-10.6,0-21.3,1.4-32,4.2c-0.6,0.2-1.2,0.1-1.7-0.2s-0.9-0.8-1-1.4
		C1156.166,810.6,1156.866,809.4,1158.066,809.1z"/>
	<path style="fill:#FFFFFF;" d="M379.666,692.2L379.666,692.2c-0.2,6.6-1.8,40.5-13.3,71.9v0.1l0.1,0.1c3.7,5.7,24.4,35.7,66.8,61.6
		l0.3,0.2l8.6-49.5c0.4-2.5,1.1-4.9,2.1-7.2l0.1-0.1l-0.1-0.1c-15.7-17.5-37-47.9-49.2-92.9l-0.1-0.4L379.666,692.2L379.666,692.2z"
		/>
	<path style="fill:#E6E7E8;" d="M524.566,1344c-2-9.8-8.2-16.1-10.7-18.4l-0.1-0.1l-0.2,0.1c-2.3,1.4-4.9,2.2-7.7,2.2
		c-3.9,0-7.5-1.5-10.2-4.3l-0.6-0.6v0.6c0,1-0.1,1.9-0.4,2.7c-1.2,3.8-4,7-7.7,8.8c-3.2,1.5-8.7,2.7-16.4-0.5
		c-2.5-1-5.3-2.4-8.2-3.8c-11.1-5.4-25-12.1-34.6-7.2c-5.7,2.9-10.8,7.4-15.8,11.6c-3.5,3-7.1,6.1-10.9,8.7l-0.7,0.5h124.2
		L524.566,1344z"/>
	<path style="fill:#FFFFFF;" d="M529.166,1344.3h65.6v-0.3c-2.7-18.8-9.9-33.7-21.4-44.3l-0.4-0.4v0.6c0.2,3.9-1.9,7.3-5.5,9
		c-1.4,0.7-2.8,1-4.3,1c-2.7,0-5.4-1.2-7.2-3.3c-1.9-2.1-3.9-3.9-6-5.4l-0.2-0.1l-0.1,0.1c-0.7,0.7-1.4,1.3-2.2,1.8l-0.2,0.1
		l0.1,0.2c0.7,2.5,0.7,5.1,0.1,7.5c-1.1,4.1-3.8,7.5-7.6,9.4l-0.3,0.2c-2,1-4.1,1.4-6.2,1.4c-4.6,0-9-2.2-11.7-6
		c-0.2-0.2-0.4-0.5-0.6-0.7l-0.7-0.9l-0.1,0.6c-0.3,2.8-1.3,5.3-3,7.5l-0.1,0.2l0.2,0.2c3.6,3.3,9.9,10.4,11.9,21.5L529.166,1344.3z
		"/>
	<path style="fill:#FFFFFF;" d="M375.266,601.9c-7.4,4.1-8.9,24.4-5.7,40.8c4.1,20.9,25.8,26.2,26.8,26.4h0.1c0.2,0,0.3,0.1,0.5,0.2
		h0.1c0.2,0.1,0.3,0.2,0.4,0.3l0.1,0.1c0.1,0.1,0.2,0.2,0.3,0.4l0.1,0.1c0.1,0.2,0.2,0.3,0.2,0.5c11.5,45.4,32.5,76.2,48,94l0.2,0.3
		l0.2-0.3c5.8-9.6,16.1-15.7,27.5-16.3c36-1.8,80.9-4.1,133.4-6.8h0.1l0.1-0.1c14.1-24.3,20.5-52.5,19-83.6v-0.4l-0.4,0.2
		c-5.4,3.4-11.3,5.2-17.4,5.2c-19.6,0-36-18.1-38.2-42.1v-0.1l-0.1-0.1c-6.5-3.2-14.3-0.2-17.3,1.2l-0.2,0.1v0.2
		c0.1,1.6,0.2,3,0.2,4.4c0,27.6-19,50-42.2,50c-23.2,0-42.2-22.4-42.2-50c0-3,0.2-6.1,0.7-9.2v-0.2l-50.2-13.2v0.4
		c0.2,2.1-0.1,4.2-1,6.2c-1.3,3.1-3.8,5.5-7,6.7c-4.3,1.6-9.1,0.7-12.6-2.3l-5.9-5.3C387.466,604.4,380.266,599.1,375.266,601.9z
		 M557.366,689.2l17.9-5.7l-14.9-45.4c-0.2-0.6-0.1-1.2,0.1-1.7c0.3-0.5,0.7-0.9,1.3-1.1c0.2-0.1,0.5-0.1,0.7-0.1
		c0.3,0,0.7,0.1,1,0.2c0.5,0.3,0.9,0.7,1.1,1.3l15.6,47.5c0.2,0.6,0.1,1.2-0.1,1.7c-0.3,0.5-0.8,0.9-1.3,1.1l-20,6.4
		c-0.2,0.1-0.5,0.1-0.7,0.1c-1,0-1.8-0.6-2.1-1.6C555.566,690.8,556.266,689.6,557.366,689.2z M512.266,717.7
		c0.4-0.9,1.2-1.4,2.1-1.4c0.3,0,0.6,0.1,0.9,0.2c0.3,0.1,31.6,12.6,60.4,6.6c0.6-0.1,1.2,0,1.7,0.3s0.9,0.8,1,1.4
		c0.1,0.6,0,1.2-0.3,1.7s-0.8,0.8-1.4,1c-5.7,1.2-11.8,1.8-18.2,1.8c-23.7,0-44.1-8.3-44.9-8.6
		C512.366,720.2,511.866,718.8,512.266,717.7z"/>
	<path style="fill:#E6E7E8;" d="M1391.066,354.8h-258.9c-12.1,0-21.9,9.8-21.9,21.9v129.9c0,6.5,3.6,12.2,9.5,14.9
		c2.3,1.1,4.7,1.6,7,1.6c3.7,0,7.4-1.3,10.5-3.8l25.8-21.5c0.4-0.3,0.9-0.5,1.4-0.5h226.6c12.1,0,21.9-9.8,21.9-21.9v-98.6
		C1412.966,364.6,1403.166,354.8,1391.066,354.8z M1372.866,468h-111.2c-1.2,0-2.2-1-2.2-2.2s1-2.2,2.2-2.2h111.2
		c1.2,0,2.2,1,2.2,2.2S1374.066,468,1372.866,468z M1372.866,441.8h-219.5c-1.2,0-2.2-1-2.2-2.2s1-2.2,2.2-2.2h219.5
		c1.2,0,2.2,1,2.2,2.2S1374.066,441.8,1372.866,441.8z M1372.866,415.5h-219.5c-1.2,0-2.2-1-2.2-2.2s1-2.2,2.2-2.2h219.5
		c1.2,0,2.2,1,2.2,2.2S1374.066,415.5,1372.866,415.5z M1372.866,389.3h-219.5c-1.2,0-2.2-1-2.2-2.2s1-2.2,2.2-2.2h219.5
		c1.2,0,2.2,1,2.2,2.2S1374.066,389.3,1372.866,389.3z"/>
	<path style="fill:#FFFFFF;" d="M663.966,1023.7c1.2-0.3,2.4,0.4,2.7,1.6l79,318.8v0.2h126.6l-87.9-354.8c-1.4-5.5-6.5-9.3-12.2-9
		l-110.9,6.8c-7.3,0.4-14,4-18.5,9.7c-10.4,13.2-14.2,30.9-10.1,47.2l75,300h33.4l-78.8-317.9
		C661.966,1025.2,662.666,1024,663.966,1023.7z M731.966,1070.1c4.5-6.2,11.4-10,19.1-10.5c0.5,0,1,0,1.5,0c11.5,0,21.7,7.8,24.7,19
		l41.4,157.7c1.9,7.4,0.5,15.2-4,21.4c-4.5,6.2-11.4,10-19.1,10.5c-0.5,0-1,0-1.6,0c-11.6,0-21.7-7.8-24.6-19l-41.4-157.7
		C725.966,1084.1,727.466,1076.3,731.966,1070.1z"/>
	<path style="fill:#283238;" d="M570.866,1104.7c-23.4,1-49.1,1.9-76.3,2.6c-3.6,0.1-6.8,2.5-7.8,6l-4.5,16.1c-0.5,1.7-0.1,3.6,1,5
		s2.7,2.2,4.5,2.2c0,0,0,0,0.1,0c25.7-0.7,51.3-1.5,76.2-2.6c3.5-0.1,6.6-2.5,7.6-5.9l4.9-16.2c0.5-1.8,0.2-3.6-0.9-5.1
		C574.366,1105.4,572.666,1104.6,570.866,1104.7z"/>
	<path style="fill:#FFFFFF;" d="M992.566,725.7c-104.7,5.6-364.7,19.5-518.4,27.1c-13.9,0.7-25.3,10.8-27.7,24.5l-63.3,366.4
		c-1.5,8.7,0.9,17.5,6.6,24.2c5.6,6.6,13.8,10.4,22.5,10.4c0.1,0,0.2,0,0.3,0c48-0.4,143.8-2.1,246.5-8.5h0.3l-31.1-124.5
		c-4.4-17.7-0.3-36.8,11-51.1c5.3-6.7,13.2-10.8,21.8-11.4l110.9-6.8c7.9-0.5,15,4.7,16.9,12.4l41.1,165.8l0.1,0.2h0.2
		c27.7-3.5,53.3-7.4,76.1-11.6c11.3-2.1,20.4-10.6,23.3-21.7l93.2-358.4c2.4-9.2,0.3-18.8-5.7-26.2
		C1011.066,729.2,1002.066,725.3,992.566,725.7z M580.766,1113.2l-4.9,16.2c-1.6,5.2-6.3,8.9-11.7,9.1c-25,1-50.6,1.9-76.3,2.6
		c-3.2,0.1-6.3-1.3-8.2-3.9c-2-2.6-2.6-5.8-1.7-9l4.5-16.1c1.5-5.4,6.3-9.2,12-9.3c27.2-0.8,52.8-1.6,76.2-2.6c0.1,0,0.3,0,0.4,0
		c3.2,0,6.1,1.4,8,3.9C581.066,1106.7,581.666,1110,580.766,1113.2z M588.466,830.3l-7.7,39.8c-0.2,1.1-1.1,1.8-2.2,1.8
		c-0.1,0-0.3,0-0.4,0c-0.6-0.1-1.1-0.5-1.4-0.9c-0.3-0.5-0.5-1.1-0.3-1.7l7.7-39.8c0.2-1.1,1.2-1.8,2.2-1.8c0.1,0,0.3,0,0.4,0
		c0.6,0.1,1.1,0.5,1.4,0.9C588.466,829.1,588.566,829.7,588.466,830.3z M618.566,828.5l-7.7,39.8c-0.2,1.2-1.4,2-2.6,1.8
		c-0.6-0.1-1.1-0.5-1.4-0.9c-0.3-0.5-0.5-1.1-0.3-1.7l7.7-39.8c0.2-1.1,1.2-1.8,2.2-1.8c0.1,0,0.3,0,0.4,0c0.6,0.1,1.1,0.5,1.4,0.9
		C618.566,827.3,618.666,827.9,618.566,828.5z M648.666,826.7l-7.7,39.8c-0.2,1.1-1.1,1.8-2.2,1.8c-0.1,0-0.3,0-0.4,0
		c-0.6-0.1-1.1-0.5-1.4-0.9c-0.3-0.5-0.5-1.1-0.3-1.7l7.7-39.8c0.2-1.1,1.2-1.8,2.2-1.8c0.1,0,0.3,0,0.4,0c0.6,0.1,1.1,0.5,1.4,0.9
		C648.666,825.5,648.866,826.1,648.666,826.7z M678.866,824.9l-7.7,39.8c-0.2,1.2-1.4,2-2.6,1.8c-0.6-0.1-1.1-0.5-1.4-0.9
		c-0.3-0.5-0.5-1.1-0.3-1.7l7.7-39.8c0.2-1.1,1.2-1.8,2.2-1.8c0.1,0,0.3,0,0.4,0c0.6,0.1,1.1,0.5,1.4,0.9
		C678.866,823.7,678.966,824.3,678.866,824.9z M708.966,823.1l-7.7,39.8c-0.2,1.1-1.1,1.8-2.2,1.8c-0.1,0-0.3,0-0.4,0
		c-0.6-0.1-1.1-0.5-1.4-0.9c-0.3-0.5-0.5-1.1-0.3-1.7l7.7-39.8c0.2-1.1,1.2-1.8,2.2-1.8c0.1,0,0.3,0,0.4,0c0.6,0.1,1.1,0.5,1.4,0.9
		C708.966,821.9,709.066,822.5,708.966,823.1z M739.166,821.3l-7.7,39.8c-0.2,1.1-1.1,1.8-2.2,1.8c-0.1,0-0.3,0-0.4,0
		c-0.6-0.1-1.1-0.5-1.4-0.9c-0.3-0.5-0.5-1.1-0.3-1.7l7.7-39.8c0.2-1.1,1.2-1.8,2.2-1.8c0.1,0,0.3,0,0.4,0c0.6,0.1,1.1,0.5,1.4,0.9
		C739.166,820.1,739.266,820.7,739.166,821.3z M769.266,819.5l-7.7,39.8c-0.2,1.1-1.1,1.8-2.2,1.8c-0.1,0-0.3,0-0.4,0
		c-0.6-0.1-1.1-0.5-1.4-0.9c-0.3-0.5-0.5-1.1-0.3-1.7l7.7-39.8c0.2-1.1,1.2-1.8,2.2-1.8c0.1,0,0.3,0,0.4,0c0.6,0.1,1.1,0.5,1.4,0.9
		C769.266,818.3,769.366,818.9,769.266,819.5z M799.366,817.7l-7.7,39.8c-0.2,1.1-1.1,1.8-2.2,1.8c-0.1,0-0.3,0-0.4,0
		c-0.6-0.1-1.1-0.5-1.4-0.9c-0.3-0.5-0.5-1.1-0.3-1.7l7.7-39.8c0.2-1.1,1.2-1.8,2.2-1.8c0.1,0,0.3,0,0.4,0c0.6,0.1,1.1,0.5,1.4,0.9
		C799.366,816.5,799.466,817.1,799.366,817.7z M829.566,815.9l-7.7,39.8c-0.2,1.1-1.1,1.8-2.2,1.8c-0.1,0-0.3,0-0.4,0
		c-0.6-0.1-1.1-0.5-1.4-0.9c-0.3-0.5-0.5-1.1-0.3-1.7l7.7-39.8c0.2-1.1,1.2-1.8,2.2-1.8c0.1,0,0.3,0,0.4,0c0.6,0.1,1.1,0.5,1.4,0.9
		C829.566,814.7,829.666,815.3,829.566,815.9z M859.666,814.1l-7.7,39.8c-0.2,1.1-1.1,1.8-2.2,1.8c-0.1,0-0.3,0-0.4,0
		c-0.6-0.1-1.1-0.5-1.4-0.9c-0.3-0.5-0.5-1.1-0.3-1.7l7.7-39.8c0.2-1.1,1.2-1.8,2.2-1.8c0.1,0,0.3,0,0.4,0c0.6,0.1,1.1,0.5,1.4,0.9
		C859.666,812.9,859.766,813.5,859.666,814.1z M889.766,812.3l-7.7,39.8c-0.2,1.1-1.1,1.8-2.2,1.8c-0.1,0-0.3,0-0.4,0
		c-0.6-0.1-1.1-0.5-1.4-0.9c-0.3-0.5-0.5-1.1-0.3-1.7l7.7-39.8c0.1-0.6,0.5-1.1,0.9-1.4c0.4-0.3,0.8-0.4,1.3-0.4c0.1,0,0.3,0,0.4,0
		c0.6,0.1,1.1,0.5,1.4,0.9C889.766,811.1,889.966,811.7,889.766,812.3z M987.466,757.6c-0.4,0.4-1,0.7-1.6,0.7l-500.1,27.8h-0.2
		l-60.2,353.1c-0.2,1.2-1.4,2-2.6,1.8s-2-1.4-1.8-2.6l60.2-353.4v-0.1l-20.2-15.7c-0.5-0.4-0.8-0.9-0.8-1.5
		c-0.1-0.6,0.1-1.2,0.5-1.7s0.9-0.8,1.5-0.8c0.1,0,0.2,0,0.3,0c0.5,0,1,0.2,1.4,0.5l20.5,16l0.1,0.1l501.3-27.9
		c0.6,0,1.2,0.2,1.6,0.5c0.5,0.4,0.7,1,0.8,1.6C988.066,756.5,987.866,757.1,987.466,757.6z"/>
	<path style="fill:#52ABFB;" d="M325.466,810.5l-0.2,0.1c-7.2,2.5-16.4,5.2-26.2,8.2c-39.2,11.8-98.5,29.6-116.7,54.1
		c-12.2,16.4-45.7,108.7-70.4,193.6v0.1l0.1,0.1c2.4,4,15.6,25.1,39.6,43.7c24.3,18.8,65.2,39,122.1,28.7h0.1v-0.1
		c13.8-42.4,30.9-102.8,34.3-149.7c3.7-50-58.1-95.4-58.7-95.9c-1-0.7-1.2-2.1-0.5-3.1s2.1-1.2,3.1-0.5c0.7,0.5,16.2,11.9,31.6,29.9
		c20.5,24,30.5,48.2,28.9,69.9c-3,41-16.4,91.8-27.1,127.3c-9.9,32.6-19.3,58.6-22,65.8l-0.1,0.2l0.2,0.1c13,7.4,80.8,46,138.3,75.6
		l0.1,0.1l0.1-0.1c16.5-11.5,40.4-13.8,47.4-14.2c5.9-0.4,11.6-1.5,17-3.4l1.7-0.6c13.5-4.7,27.9-0.9,40.3,3.5
		c15.6,5.6,29.3,15.6,43,31.5c1,1.1,1.8,2.4,2.4,3.9v0.1h0.1c4,1.6,11.4,5.3,15.6,11.8l0.1,0.1c6.4,4.5,11.9,10.1,16.4,16.8l0.3,0.5
		l27-131.1l0.1-0.3h-0.3c-86,4.3-162.6,5.6-200.7,5.9h-0.3c-10,0-19.5-4.4-26-12c-6.6-7.7-9.4-17.9-7.6-27.9l44.4-256.4v-0.2
		l-0.2-0.1c-48.5-19.3-89.5-66.6-97.2-75.9L325.466,810.5z"/>
	<path style="fill:#FFFFFF;" d="M1202.666,912.9c-3.4-1.9-7.4-2.5-11.1-1.5c-3.8,1-6.9,3.4-8.9,6.8c-2,3.4-2.5,7.3-1.5,11.1
		c1.8,6.5,7.7,10.9,14.2,10.9c1.3,0,2.5-0.2,3.8-0.5c3.8-1,6.9-3.4,8.9-6.8c2-3.4,2.5-7.3,1.5-11.1
		C1208.466,918.1,1206.066,914.9,1202.666,912.9z"/>
	<path style="fill:#FFFFFF;" d="M1338.166,1497.4v-101.7H45.266v101.7c0,0.2,0,0.4-0.1,0.7l-0.1,0.3h553.2l-0.1-0.3
		c-0.1-0.3-0.1-0.5-0.1-0.7v-79.1c0-1.2,1-2.2,2.2-2.2s2.2,1,2.2,2.2v79.1c0,0.2,0,0.4-0.1,0.7l-0.1,0.3h736.1l-0.1-0.3
		C1338.166,1497.8,1338.166,1497.6,1338.166,1497.4z"/>
	<rect x="29.266" y="1348.8" style="fill:#FFFFFF;" width="568.8" height="42.4"/>
	<path style="fill:#DBDBDB;" d="M106.266,1262.9l-0.6-0.6l14.8,82h178.2l-2-0.5c-21.3-5.3-53.6-14-86.4-25.7
		C160.366,1300.4,125.366,1281.8,106.266,1262.9z"/>
	<path style="fill:#DBDBDB;" d="M89.166,1187.5l0.3,1.6l0.2-1.6c2.3-17.4,6.5-37.9,12.8-62.6v-0.1l-0.1-0.1
		c-4.9-7.8-6.9-13.2-7-13.5c-0.2-0.4-0.2-0.9-0.1-1.3c3.6-13.8,7.6-28.5,12-43.7v-0.1c24.9-85.8,58.9-179.2,71.4-196
		c19.1-25.7,76.9-43,119-55.7h0.1c10.6-3.2,19.8-5.9,26.9-8.4h0.1l36.8-42.5v-0.1c4.6-12.4,8.2-26.6,10.5-42.2v-0.3h-218.4
		c-36.7,0-71.3,16-95.1,43.9s-34.1,64.7-28.4,100.9L89.166,1187.5z M78.766,786.5c0.3-0.9,1.2-1.4,2.1-1.4c0.3,0,0.6,0.1,0.8,0.2
		c17.9,7.1,31.7,22.3,36.9,40.8l18.4,65.3c0.2,0.6,0.1,1.2-0.2,1.7s-0.8,0.9-1.4,1.1l0,0c-0.2,0.1-0.4,0.1-0.6,0.1
		c-1,0-1.9-0.7-2.2-1.6l-18.4-65.3c-4.8-17.2-17.6-31.3-34.2-37.9C78.966,789,78.366,787.7,78.766,786.5z"/>
	<path style="fill:#DEF2FF;" d="M630.466,648.3l0.4-0.4c7.5-8.2,11.9-20.1,11.9-32.6c0-16.3-7.5-31.5-19.1-38.7l-0.4-0.2v0.4
		c0,3.4,0,6.9-0.1,10.4c0,0.1,0,0.2,0,0.3c-0.1,10-0.1,17.6-0.1,24.8v0.1c0.9,2.5,5.3,15.9,7.3,35.3L630.466,648.3z"/>
	<path style="fill:#DEF2FF;" d="M618.566,612.8c0-6.6,0-13.6,0.1-22.1v-0.3l-30.4,8.2c-0.2,0.1-0.4,0.1-0.6,0.1
		c-1,0-1.9-0.7-2.2-1.7c-0.2-0.6-0.1-1.2,0.2-1.7s0.8-0.9,1.4-1.1l31.6-8.6v-0.2c0-3.8,0-7.5,0.1-11.2V574l-0.2-0.1
		c-3.2-1.2-6.5-1.9-9.8-1.9c-18.7,0-33.9,19.3-33.9,43s15.2,43,33.9,43c6.1,0,12.1-2.1,17.3-6l0.1-0.1v-0.1
		c-1.9-22.9-7.4-38.3-7.4-38.4C618.566,613.3,618.566,613.1,618.566,612.8z M604.066,629.8c-1.8,2.2-4.3,3.5-6.8,3.5l0,0
		c-5.4,0-9.7-5.4-9.7-12c0-3.2,1-6.2,2.9-8.5c1.8-2.2,4.3-3.5,6.8-3.5l0,0c2.6,0,5,1.3,6.8,3.5c1.8,2.3,2.8,5.3,2.8,8.5
		C606.966,624.5,605.866,627.5,604.066,629.8z"/>
	<path style="fill:#81C3FC;" d="M1346.366,209.2c-20.6,0-39.4,16.5-45.7,40v0.1l0.1,0.1c12.4,11.7,28.6,18.1,45.6,18.1
		s33.2-6.4,45.6-18.1l0.1-0.1v-0.1C1385.766,225.6,1366.966,209.2,1346.366,209.2z"/>
	<path style="fill:#52ABFB;" d="M642.666,304.1c50,0,90.6-40.6,90.6-90.6s-40.6-90.6-90.6-90.6s-90.6,40.6-90.6,90.6
		C552.066,263.4,592.766,304.1,642.666,304.1z M608.466,213.5c0.4-0.4,1-0.7,1.6-0.7s1.2,0.2,1.6,0.7l24.5,24.5l40.2-40.2
		c0.8-0.8,2.3-0.8,3.2,0c0.4,0.4,0.7,1,0.7,1.6s-0.2,1.2-0.7,1.6l-41.8,41.8c-0.8,0.8-2.3,0.8-3.2,0l-26.1-26.1
		C607.566,215.8,607.566,214.3,608.466,213.5z"/>
	<path style="fill:#FFFFFF;" d="M610.266,503.1c-4.3-2.1-9.5-2-13.9,0.4c-42.2,22.9-87.7,16.4-124.3,11.2c-35.4-5.1-55.8-7-61.2,11
		c-3.6,12-7.6,37.5,6.6,72.8v0.1l52.8,13.9l0.1-0.2c1.6-6.5,4.3-12.5,7.9-17.7l0.2-0.3l-0.4-0.1c-1.2-0.2-2-1.2-1.9-2.4
		s1.2-2.2,2.4-2.1l3.3,0.3l0.1-0.1c7.9-8.7,18.1-13.6,28.9-13.6c20.2,0,37.6,17,41.5,40.4l0.1,0.3l0.3-0.1
		c3.6-1.5,10.6-3.6,17.3-1.5l0.3,0.1v-0.3c0-26.2,17.3-47.5,38.4-47.5c3.3,0,6.6,0.5,9.7,1.5l0.3,0.1V569c0.1-23.6,0.2-41.2-0.2-53
		C618.466,510.5,615.266,505.5,610.266,503.1z"/>
	<path style="fill:#DEF2FF;" d="M527.266,598.2c-0.1,0-0.1,0-0.2,0l-43.2-3.5l-0.1,0.1c-6.8,8.5-10.6,19.8-10.6,31.6
		c0,25.1,16.9,45.5,37.7,45.5s37.7-20.4,37.7-45.5s-16.9-45.5-37.7-45.5c-8.3,0-16.2,3.2-22.8,9.2l-0.4,0.4l39.7,3.2
		c0.6,0,1.1,0.3,1.5,0.8s0.6,1,0.5,1.6C529.366,597.3,528.366,598.2,527.266,598.2z M514.766,644.4L514.766,644.4
		c-2.9,0-5.6-1.4-7.6-3.9c-2.1-2.5-3.2-5.8-3.2-9.4c0-7.3,4.8-13.3,10.8-13.3l0,0c5.9,0,10.8,5.9,10.8,13.3
		C525.566,638.4,520.666,644.4,514.766,644.4z"/>
	<path style="fill:#283238;" d="M392.966,603l-0.4,0.1l0.3,0.3c1,0.8,1.9,1.7,2.9,2.5l5.9,5.2c1.5,1.3,3.3,2,5.2,2
		c0.9,0,1.9-0.2,2.8-0.5c2-0.8,3.6-2.3,4.5-4.3c0.8-1.9,0.9-4,0.1-5.9v-0.1l-0.4-0.1C406.966,600.5,399.766,600.7,392.966,603z"/>
	<path style="fill:#FFFFFF;" d="M390.466,1344.3L390.466,1344.3c6.7-2.3,12.5-7.3,18.6-12.6c5.2-4.5,10.5-9.1,16.7-12.2
		c11.6-6,26.6,1.3,38.6,7.1c2.9,1.4,5.6,2.7,7.9,3.7c4.9,2,9.3,2.2,12.7,0.6c2.5-1.2,4.5-3.5,5.3-6c0.9-3.1-1.4-6.7-2.4-8.2
		l-0.1-0.1c-18.1-13.6-38.4-15.7-38.6-15.7c-1.2-0.1-2.1-1.2-2-2.5c0.1-1.2,1.2-2.2,2.5-2c1.2,0.1,28.8,3,49.2,23.8
		c3.6,3.7,9.5,3.9,13.5,0.6c2.1-1.8,3.3-4.2,3.4-6.9c0.2-2.7-0.8-5.3-2.6-7.3l-2.1-2.3c-19.3-17.2-44.1-22.7-44.3-22.8
		c-1.2-0.3-2-1.5-1.7-2.7c0.1-0.6,0.5-1.1,1-1.4s1.1-0.4,1.7-0.3c1.5,0.3,37,8.1,57.4,35.8c2.9,3.9,8.1,5.3,12.4,3.2l0.3-0.2
		c2.6-1.3,4.5-3.6,5.2-6.4s0.2-5.7-1.4-8c-12.8-18.2-28.3-27.2-39-31.6c-11.5-4.7-20.3-5.2-20.6-5.2c-1.2-0.1-2.2-1.1-2.1-2.3
		c0.1-1.2,1.1-2.1,2.3-2.1l0,0c1.5,0.1,37.2,2.1,62.9,38.5l0.1,0.2l0.2-0.2c2.5-1.9,4.3-5.1,5.1-8.8c0.9-4.6,0-9.2-2.3-12
		c-13.2-15.3-26.3-24.9-41.1-30.2c-12.2-4.3-25.2-7.8-37.3-3.5l-1.7,0.6c-5.8,2-11.9,3.3-18.2,3.6c-30.7,1.9-46,14.1-46.1,14.2
		c-0.7,0.6-1.7,0.7-2.4,0.3c-60.2-30.9-132.9-72.4-141-77h-0.1h-0.1c-9,0.9-17.9,1.4-26.4,1.4c-42.9,0-78.3-11.2-105.2-33.3
		c-8.6-7-16.1-15-22.4-23.7l-0.3-0.4l-0.1,0.5c-12.8,50.6-16.4,84-11.4,105.2c1.4,5.8,4.5,11.8,9.2,17.6l0,0
		c0.2,0.2,0.4,0.4,0.5,0.6c43.6,53,207.5,89,214.5,90.5L390.466,1344.3L390.466,1344.3z"/>
	<path style="fill:#283238;" d="M979.066,28.8c-3.6,0-6.4,2.9-6.4,6.4c0,3.6,2.9,6.4,6.4,6.4s6.4-2.9,6.4-6.4
		S982.566,28.8,979.066,28.8z"/>
	<path style="fill:#FFFFFF;" d="M609.966,1217.7c5.7,4.6,36.2,28.9,73.3,49.9l0.5,0.3l-23.3-93.3l-0.1-0.2h-0.2
		c-13.6,0.8-27.7,1.6-41.8,2.4h-0.2l-8.4,40.8L609.966,1217.7z"/>
	<path style="fill:#283238;" d="M938.966,28.8c-3.6,0-6.4,2.9-6.4,6.4c0,3.6,2.9,6.4,6.4,6.4s6.4-2.9,6.4-6.4
		S942.566,28.8,938.966,28.8z"/>
	<path style="fill:#FFFFFF;" d="M552.666,1297.3l-0.1,0.2l0.2,0.1c2.4,1.7,4.6,3.7,6.7,6c1.2,1.3,2.5,1.8,3.8,1.8
		c0.9,0,1.7-0.2,2.4-0.6c1.7-0.8,3.3-2.7,2.8-5.5v-0.2c-1.4-7.1-7.6-11.7-12.6-14.2l-0.4-0.2v0.4c0.1,1.9,0,3.9-0.4,5.8
		C554.566,1293.3,553.766,1295.4,552.666,1297.3z"/>
	<path style="fill:#FFFFFF;" d="M854.166,613.1h617.3V67.9h-617.3V613.1z M1417.466,475.3c0,14.6-11.8,26.4-26.4,26.4h-225.7
		l-25.2,21c-3.8,3.1-8.5,4.9-13.3,4.9c-3.1,0-6.1-0.7-9-2c-7.4-3.5-12.1-10.8-12.1-19V376.7c0-14.6,11.8-26.4,26.4-26.4h258.9
		c14.6,0,26.4,11.8,26.4,26.4L1417.466,475.3L1417.466,475.3z M1346.366,129.9c39.2,0,71.1,31.9,71.1,71.1s-31.9,71.1-71.1,71.1
		s-71.1-31.9-71.1-71.1S1307.166,129.9,1346.366,129.9z M910.366,150.7c0-14.6,11.8-26.4,26.4-26.4h258.9
		c14.6,0,26.4,11.8,26.4,26.4v129.9c0,8.2-4.6,15.5-12.1,19c-2.9,1.3-5.9,2-9,2c-4.8,0-9.6-1.7-13.3-4.9l-25.2-21h-225.7
		c-14.6,0-26.4-11.8-26.4-26.4L910.366,150.7L910.366,150.7z M981.466,355.9c39.2,0,71.1,31.9,71.1,71.1s-31.9,71.1-71.1,71.1
		s-71.1-31.9-71.1-71.1S942.266,355.9,981.466,355.9z"/>
	<path style="fill:#81C3FC;" d="M110.366,1072.3l-0.2,0.5c-3.7,13-7.2,25.5-10.2,37.4v0.1v0.1c1.5,3.7,10.3,22.8,31.7,40.3
		c30.9,25.2,69.5,32.1,102.2,32.1c8.9,0,17.4-0.5,25.2-1.3h0.2l0.1-0.1c1.4-3.8,6.6-17.9,13-37.2l0.1-0.4l-0.4,0.1
		c-9.6,1.6-19.2,2.4-28.6,2.4c-43.5,0-75.5-17.7-94.6-32.6c-20.1-15.6-32.5-32.3-38.1-40.9L110.366,1072.3z"/>
	<path style="fill:#283238;" d="M898.866,28.8c-3.6,0-6.4,2.9-6.4,6.4c0,3.6,2.9,6.4,6.4,6.4s6.4-2.9,6.4-6.4
		C905.366,31.7,902.466,28.8,898.866,28.8z"/>
	<path style="fill:#E6E7E8;" d="M932.066,471.7l0.1-0.4c6-19.3,19.8-33.8,36.8-38.8l0.6-0.2l-0.5-0.3c-8.2-4.5-13.4-13.2-13.4-22.5
		c0-14.2,11.5-25.7,25.7-25.7s25.7,11.5,25.7,25.7c0,9.4-5.1,18-13.4,22.5l-0.5,0.3l0.6,0.2c17,5,30.8,19.5,36.8,38.8l0.1,0.4
		l0.3-0.3c10.9-12.2,16.9-28,16.9-44.3c0-36.7-29.9-66.6-66.6-66.6s-66.6,29.9-66.6,66.6c0,16.4,6,32.1,16.9,44.3L932.066,471.7z"/>
	<path style="fill:#81C3FC;" d="M363.566,768.3l-34.2,39.4l-0.1,0.2l0.1,0.2c7.5,9,47.3,54.8,94.2,73.9l0.3,0.1l8.9-51.3l-0.2-0.1
		c-0.2-0.1-0.4-0.1-0.6-0.2c-41.4-25-62.6-53.6-68.1-61.8L363.566,768.3z"/>
	<path style="fill:#52ABFB;" d="M854.166,4.8v58.6h617.3V4.8H854.166z M898.866,46.2c-6,0-10.9-4.9-10.9-10.9s4.9-10.9,10.9-10.9
		s10.9,4.9,10.9,10.9C909.866,41.3,904.966,46.2,898.866,46.2z M938.966,46.2c-6,0-10.9-4.9-10.9-10.9s4.9-10.9,10.9-10.9
		s10.9,4.9,10.9,10.9S944.966,46.2,938.966,46.2z M979.066,46.2c-6,0-10.9-4.9-10.9-10.9s4.9-10.9,10.9-10.9s10.9,4.9,10.9,10.9
		S985.066,46.2,979.066,46.2z"/>
	<path style="fill:#E6E7E8;" d="M773.766,1248.1c2.4,9.2,10.8,15.6,20.3,15.6c0.4,0,0.9,0,1.3,0c6.3-0.4,12-3.5,15.7-8.6
		s4.9-11.5,3.3-17.6l-41.4-157.7c-2.5-9.6-11.5-16.2-21.6-15.6c-6.3,0.4-12,3.5-15.7,8.6s-4.9,11.5-3.3,17.6L773.766,1248.1z"/>
	<path style="fill:#ADADAF;" d="M1047.766,1344.3v-20.1c0-5.4-4.4-9.8-9.8-9.8h-168.4l7.4,29.9H1047.766z"/>
	<circle style="fill:#FFFFFF;" cx="981.466" cy="409.5" r="21.2"/>
	<path style="fill:#FFFFFF;" d="M1367.566,183.4c0-11.7-9.5-21.2-21.2-21.2s-21.2,9.5-21.2,21.2s9.5,21.2,21.2,21.2
		S1367.566,195.1,1367.566,183.4z"/>
	<path style="fill:#283238;" d="M1297.066,245.6l0.1-0.4c6-19.3,19.8-33.8,36.8-38.8l0.6-0.2l-0.5-0.3c-8.2-4.5-13.4-13.2-13.4-22.5
		c0-14.2,11.5-25.7,25.7-25.7s25.7,11.5,25.7,25.7c0,9.4-5.1,18-13.4,22.5l-0.5,0.3l0.6,0.2c17,5,30.8,19.5,36.8,38.8l0.1,0.4
		l0.3-0.3c10.9-12.2,16.9-28,16.9-44.3c0-36.7-29.9-66.6-66.6-66.6s-66.6,29.9-66.6,66.6c0,16.4,6,32.1,16.9,44.3L1297.066,245.6z"
		/>
	<path style="fill:#FFFFFF;" d="M893.566,1309.7c-1.2-10.3-8.1-28.3-19.8-36c-4.6-3-9.8-4.4-15-3.9h-0.3l9.9,40.1h25.2
		L893.566,1309.7z"/>
	<rect x="602.566" y="1348.8" style="fill:#FFFFFF;" width="751.6" height="42.4"/>
	<path style="fill:#ADADAF;" d="M599.366,1344.3h103.6l-7.5-29.9h-104c-0.3,0-0.6,0-0.9,0h-0.4l0.2,0.3c4.4,8.5,7.4,18.3,8.9,29.3
		L599.366,1344.3z"/>
	<path style="fill:#283238;" d="M981.466,435.2c-20.6,0-39.4,16.5-45.7,40v0.1l0.1,0.1c12.4,11.7,28.6,18.1,45.6,18.1
		s33.2-6.4,45.6-18.1l0.1-0.1v-0.1C1020.866,451.7,1002.066,435.2,981.466,435.2z"/>
	<path style="fill:#DEF2FF;" d="M936.766,271.2h226.6c0.5,0,1,0.2,1.4,0.5l25.8,21.5c3,2.5,6.7,3.8,10.5,3.8c2.4,0,4.8-0.5,7-1.6
		c5.8-2.7,9.5-8.5,9.5-14.9V150.7c0-12.1-9.8-21.9-21.9-21.9h-258.9c-12.1,0-21.9,9.8-21.9,21.9v98.6
		C914.866,261.4,924.666,271.2,936.766,271.2z M955.066,158.8h219.5c1.2,0,2.2,1,2.2,2.2s-1,2.2-2.2,2.2h-219.5
		c-1.2,0-2.2-1-2.2-2.2S953.766,158.8,955.066,158.8z M955.066,185h219.5c1.2,0,2.2,1,2.2,2.2s-1,2.2-2.2,2.2h-219.5
		c-1.2,0-2.2-1-2.2-2.2S953.766,185,955.066,185z M955.066,211.2h219.5c1.2,0,2.2,1,2.2,2.2s-1,2.2-2.2,2.2h-219.5
		c-1.2,0-2.2-1-2.2-2.2S953.766,211.2,955.066,211.2z M955.066,237.4h111.2c1.2,0,2.2,1,2.2,2.2s-1,2.2-2.2,2.2h-111.2
		c-1.2,0-2.2-1-2.2-2.2S953.766,237.4,955.066,237.4z"/>
	<path style="fill:#283238;" d="M570.566,1099.9c-23.4,1-49.1,1.9-76.2,2.6c-5.7,0.2-10.6,4-12.2,9.5l-4.5,16.1
		c-0.9,3.2-0.3,6.6,1.8,9.2c2,2.6,4.9,4,8.2,4c0.1,0,0.2,0,0.3,0c25.7-0.7,51.3-1.5,76.3-2.6c5.6-0.2,10.4-4,12-9.3l4.9-16.2
		c1-3.3,0.3-6.7-1.7-9.3C577.166,1101.3,573.966,1099.8,570.566,1099.9z M576.166,1111.8l-4.9,16.2c-1,3.3-4,5.6-7.4,5.7
		c-24.9,1-50.5,1.9-76.2,2.6c-1.7,0-3.3-0.7-4.4-2.1s-1.4-3.1-0.9-4.8l4.5-16.1c1-3.4,4-5.8,7.5-5.9c27.2-0.8,52.9-1.6,76.3-2.6
		c1.8-0.1,3.4,0.7,4.5,2.1C576.366,1108.4,576.666,1110.2,576.166,1111.8z"/>
	<path style="fill:#283238;" d="M1356.466,1344.1h-303.9v-19.9c0-8-6.5-14.5-14.5-14.5h-139.7c-1.2-12.2-9-31.4-22-40
		c-7.1-4.7-13.9-5.2-18.8-4.5l-26.3-106.1c27.5-3.5,53.1-7.4,75.8-11.6c13.1-2.4,23.7-12.3,27-25.1l93.2-358.4
		c2.8-10.7,0.4-21.8-6.6-30.4c-7-8.6-17.4-13.2-28.5-12.6c-77,4.1-238.2,12.7-379,20c17.4-31.7,19.4-64.4,17.9-86.6
		c0-0.1,0-0.2,0-0.3c9.8-8.7,16.2-22.9,16.2-38.9c0-19.9-9.9-37-23.9-44.1c0-4.4,0.1-8.7,0.1-12.8c3.5-5.9,28.3-50.4,17.5-96.4
		c-11.5-49.5-85.6-80.1-180.1-74.5c-49.3,2.9-80.2,27.1-97.5,46.9c-16.1,18.5-23.5,36.2-25.4,41.3c-9.7,2-17.3,7.4-22.5,16.2
		c-18.6,31-3.9,96.7,7.7,130.7c17.8,52.1,44.4,67.2,51.5,70.4c-0.1,3.5-0.6,12-2.1,23.1h-218.9c-38.1,0-74.1,16.6-98.8,45.6
		s-35.4,67.1-29.4,104.8l62.1,338.3c0,0.2,0.1,0.5,0.2,0.7c-0.7,12.5,0,22.8,2,31.3c1.5,6.5,4.9,12.9,10,19.4l15.9,88.1h-88.6
		c-1.4,0-2.5,1.1-2.5,2.5v46.9c0,1.4,1.1,2.5,2.5,2.5h13.5v101.4c0,1.4,1.1,2.5,2.5,2.5s2.5-1.1,2.5-2.5v-101.4h1292.4v101.4
		c0,1.4,1.1,2.5,2.5,2.5s2.5-1.1,2.5-2.5v-101.4h13.5c1.4,0,2.5-1.1,2.5-2.5v-46.9C1358.966,1345.2,1357.866,1344.1,1356.466,1344.1
		z M1047.566,1324.2v19.9h-170.4l-7.3-29.4h168.2C1043.266,1314.7,1047.566,1319,1047.566,1324.2z M745.866,1344.1l-79-318.8
		c-0.3-1.3-1.7-2.2-3-1.8c-1.3,0.3-2.2,1.7-1.8,3l78.7,317.6h-32.9l-74.9-299.8c-4.1-16.3-0.3-33.9,10.1-47
		c4.4-5.6,11.1-9.1,18.3-9.6l110.9-6.8c5.6-0.3,10.6,3.3,11.9,8.8l87.8,354.4L745.866,1344.1L745.866,1344.1z M494.866,1326.3
		c0.3-0.9,0.4-1.9,0.4-2.8c0.1,0.1,0.1,0.1,0.2,0.2c2.8,2.9,6.6,4.4,10.4,4.4c2.7,0,5.4-0.8,7.8-2.3c2.7,2.4,8.6,8.6,10.6,18.2
		h-123.1c3.8-2.6,7.4-5.7,10.9-8.7c5-4.3,10.1-8.7,15.8-11.6c9.4-4.9,23.3,1.8,34.4,7.2c2.9,1.4,5.7,2.8,8.2,3.8
		c7.8,3.2,13.3,2.1,16.6,0.5C490.766,1333.5,493.666,1330.2,494.866,1326.3z M529.366,1344.1c-2-11.2-8.5-18.5-12-21.6
		c1.7-2.2,2.7-4.8,3-7.6c0.3,0.4,0.6,0.7,0.9,1.1c2.9,3.9,7.4,6.1,11.9,6.1c2.1,0,4.3-0.5,6.3-1.5l0.3-0.2c3.9-1.9,6.7-5.4,7.8-9.5
		c0.7-2.6,0.6-5.2-0.1-7.7c0.8-0.5,1.6-1.2,2.3-1.8c1.7,1.2,3.8,2.9,6,5.4c2,2.2,4.6,3.4,7.4,3.4c1.5,0,3-0.3,4.4-1
		c3.7-1.8,5.8-5.3,5.6-9.2c9,8.3,18.1,22,21.3,44.2h-65.1L529.366,1344.1L529.366,1344.1z M100.166,1110.3
		c3.2-12.2,6.6-24.8,10.2-37.4c5.4,8.2,17.9,25.2,38.2,41c20.4,15.9,52.1,32.6,94.8,32.6c9,0,18.6-0.8,28.6-2.4
		c-6.3,19.1-11.3,32.9-13,37.2c-36.7,3.7-88.1,1.2-127.2-30.7C110.466,1133.1,101.766,1114.2,100.166,1110.3z M285.866,1116.7
		c10.7-35.5,24.1-86.3,27.1-127.3c1.6-21.8-8.4-46.1-29-70.1c-15.4-18-31-29.4-31.7-29.9c-1.1-0.8-2.7-0.6-3.5,0.6s-0.6,2.7,0.6,3.5
		c0.6,0.5,62.2,45.8,58.6,95.6c-3.5,47.5-21.1,108.8-34.3,149.6c-56.8,10.3-97.6-9.8-121.9-28.6c-23.8-18.4-36.9-39.2-39.6-43.6
		c25.4-87.4,58.6-177.7,70.4-193.5c18.2-24.4,77.4-42.2,116.6-54c10.2-3.1,19.1-5.7,26.2-8.2c7.2,8.7,48.5,56.6,97.3,76l-44.2,256.1
		c-1.7,10.1,1.1,20.3,7.7,28.1c6.6,7.7,16.1,12.1,26.2,12.1c0.1,0,0.2,0,0.3,0c40.9-0.4,116.1-1.6,200.7-5.9l-26.9,130.5
		c-5.2-7.7-11.1-13.1-16.4-16.8c-4.3-6.5-11.5-10.2-15.7-11.9c-0.6-1.5-1.4-2.8-2.4-4c-13.8-16-27.5-26-43.1-31.6
		c-12.4-4.4-26.9-8.3-40.5-3.5l-1.7,0.6c-5.4,1.9-11.1,3-16.9,3.4c-27.4,1.7-43,11.1-47.5,14.2c-57.7-29.7-126.3-68.7-138.3-75.6
		C266.566,1175.3,276.066,1149.4,285.866,1116.7z M379.966,692.3l14.7-16c12.1,44.7,33.2,75.1,49.2,93c-0.9,2.3-1.6,4.7-2.1,7.3
		l-8.5,49.1c-42.3-25.8-63-55.7-66.7-61.5C378.166,732.6,379.766,698.5,379.966,692.3z M363.466,768.7c6,9,27.1,37.1,68.2,61.9
		c0.2,0.1,0.5,0.2,0.7,0.3l-8.8,50.8c-46.8-19-86.5-64.7-94.1-73.8L363.466,768.7z M683.466,1267.3c-36.9-20.9-67.1-44.9-73.3-49.8
		l8.3-40.5c13.7-0.7,27.7-1.5,41.8-2.4L683.466,1267.3z M609.066,1223c9.7,7.7,40.1,31.1,76.1,51l8.9,35.7h-102.6
		c-0.1,0-0.2,0-0.4,0L609.066,1223z M555.666,1285.1c4.7,2.4,11.1,7,12.5,14.1v0.2c0.5,2.7-1.1,4.4-2.7,5.2
		c-1.6,0.8-4.1,0.9-5.9-1.2c-2.4-2.7-4.8-4.7-6.7-6.1c1.1-1.9,1.9-4.1,2.4-6.4C555.666,1289,555.766,1287.1,555.666,1285.1z
		 M599.566,1344.1c-1.6-11.9-4.9-21.5-8.9-29.3c0.3,0,0.6,0,0.9,0h103.8l7.3,29.4L599.566,1344.1L599.566,1344.1z M873.666,1273.9
		c11.4,7.5,18.4,24.9,19.7,35.8h-24.7l-9.8-39.7C862.766,1269.7,868.066,1270.2,873.666,1273.9z M992.566,726
		c9.5-0.5,18.3,3.4,24.3,10.8c6,7.3,8.1,16.8,5.7,26l-93.2,358.4c-2.9,11-11.9,19.4-23.1,21.5c-22.8,4.2-48.4,8.1-76.1,11.6
		l-41.1-165.8c-1.9-7.8-9.1-13.1-17.1-12.6l-111,6.8c-8.6,0.5-16.6,4.7-22,11.5c-11.3,14.4-15.5,33.6-11,51.3l31,124.2
		c-102.6,6.4-198.3,8-246.5,8.5c-8.7,0.1-17-3.7-22.6-10.3c-5.7-6.7-8-15.4-6.6-24l63.3-366.4c2.4-13.6,13.7-23.7,27.5-24.3
		C627.566,745.5,887.766,731.6,992.566,726z M607.366,741.3c-48.5,2.5-94.4,4.8-133.4,6.8c-11.7,0.6-21.9,6.9-27.7,16.4
		c-16-18.3-36.6-48.9-48-93.9l0,0c0-0.2-0.1-0.4-0.2-0.5l-0.1-0.1c-0.1-0.1-0.2-0.3-0.3-0.4c0,0,0-0.1-0.1-0.1l0,0
		c-0.1-0.1-0.3-0.2-0.5-0.3h-0.1c-0.2-0.1-0.3-0.1-0.5-0.2h-0.1c-0.9-0.2-22.5-5.4-26.6-26.2c-3.2-16.3-1.8-36.5,5.5-40.5
		c4.8-2.7,12,2.5,17.1,7.4l5.9,5.3c3.5,3.1,8.4,4,12.8,2.4c3.2-1.2,5.8-3.6,7.2-6.8c0.9-2,1.2-4.2,1-6.3l49.7,13.1
		c-0.5,3-0.7,6.1-0.7,9.2c0,27.7,19.1,50.3,42.5,50.3c23.4,0,42.5-22.5,42.5-50.3c0-1.5-0.1-3-0.2-4.4c3.1-1.4,10.7-4.3,17.1-1.2
		c2.2,23.8,18.6,42.3,38.4,42.3c6.3,0,12.3-1.9,17.6-5.2C627.466,681.7,624.166,712.3,607.366,741.3z M413.966,602.6
		c0.7,1.9,0.7,3.9-0.1,5.7c-0.8,1.9-2.4,3.4-4.3,4.1c-2.7,1-5.6,0.4-7.8-1.4l-5.9-5.2c-1-0.9-1.9-1.8-2.9-2.5
		c6.6-2.3,13.9-2.5,20.7-0.7L413.966,602.6z M483.866,594.9l43.1,3.5c0.1,0,0.1,0,0.2,0c1.3,0,2.4-1,2.5-2.3
		c0.1-1.4-0.9-2.6-2.3-2.7l-39.2-3.2c6.3-5.8,14.1-9.2,22.6-9.2c20.7,0,37.5,20.3,37.5,45.3s-16.8,45.3-37.5,45.3
		c-20.7,0-37.5-20.3-37.5-45.3C473.366,614.1,477.366,603.1,483.866,594.9z M618.366,585.5l-31.4,8.5c-1.3,0.4-2.1,1.7-1.8,3.1
		c0.3,1.1,1.3,1.8,2.4,1.8c0.2,0,0.4,0,0.7-0.1l30.1-8.1c0,7.3-0.1,14.6-0.1,22.1c0,0.3,0.1,0.6,0.2,0.9c0.1,0.3,5.6,15.8,7.4,38.4
		c-5,3.8-10.9,6-17.2,6c-18.6,0-33.7-19.2-33.7-42.8s15.1-42.8,33.7-42.8c3.4,0,6.7,0.6,9.8,1.8
		C618.466,578,618.466,581.8,618.366,585.5z M642.366,615.3c0,13-4.6,24.6-11.8,32.5c-2-19.4-6.4-32.8-7.3-35.4
		c0-8.4,0-16.7,0.1-24.8c0-0.1,0-0.2,0-0.3c0-3.5,0-7,0.1-10.4C634.666,583.8,642.366,598.4,642.366,615.3z M608.666,567.5
		c-21.3,0-38.7,21.4-38.7,47.7c-6.7-2.1-13.5-0.1-17.5,1.5c-3.8-23.1-21.1-40.6-41.7-40.6c-11.2,0-21.5,5.2-29.1,13.6l-3.1-0.3
		c-1.4-0.1-2.6,0.9-2.7,2.3c-0.1,1.3,0.8,2.5,2.1,2.7c-3.6,5.2-6.3,11.2-8,17.8l-52.4-13.8c-6.4-16-14.9-45-6.6-72.7
		c5.4-17.8,25.6-15.8,60.9-10.8c36.6,5.2,82.2,11.7,124.5-11.2c4.3-2.3,9.4-2.5,13.7-0.4c4.9,2.4,8.1,7.3,8.2,12.7
		c0.4,12.2,0.3,31.1,0.2,53C615.366,568,612.066,567.5,608.666,567.5z M328.066,620.9c-15.2-44.4-23.6-100.7-8.1-126.5
		c4.8-7.9,11.7-12.7,20.5-14.1c0.9-0.1,1.7-0.8,2-1.7c0.1-0.2,6.9-20.3,24.9-41c16.6-19.1,46.4-42.4,94-45.2
		c92-5.5,164,23.6,174.9,70.6c8,34.3-5.1,68.6-12.6,84.3c0-12.7,0-23.5-0.3-31.5c-0.2-7.3-4.5-13.8-11-17
		c-5.7-2.8-12.5-2.6-18.2,0.5c-40.8,22.2-85.4,15.8-121.4,10.7c-33.3-4.7-59.5-8.5-66.4,14.3c-8.2,27.3-1,55.5,5.5,72.7
		c-7.9-1.4-16.1-0.5-23.5,2.8c-5.9-3.7-11-4.4-15.3-2c-11.2,6.2-10.9,31.4-8,45.9c3.6,18.5,19,26.2,26.4,28.9l-14.6,15.9
		C370.466,685.3,345.066,670.5,328.066,620.9z M30.366,865.5c-5.8-36.1,4.6-72.8,28.3-100.7c23.8-27.8,58.4-43.8,95-43.8h218.5
		c-1.9,12.6-5.1,27.7-10.5,42.2l-36.8,42.4c-7.1,2.5-16.4,5.2-27,8.5c-42.2,12.7-100,30-119.2,55.8c-12,16.2-45.8,107.9-71.4,196.1
		c0,0.1,0,0.1,0,0.2c-4.3,14.8-8.3,29.5-12,43.7c-0.1,0.5-0.1,1,0.1,1.5c0.2,0.4,2.2,5.8,7.1,13.5c-6.3,24.5-10.6,45.2-12.9,62.6
		L30.366,865.5z M105.966,1130.4c5.2,7.2,12.4,15.6,22.4,23.8c31.9,26.2,71.5,33.4,105.4,33.4c9.3,0,18.3-0.6,26.4-1.4
		c7.8,4.5,80.7,46.1,141,77.1c0.9,0.4,1.9,0.3,2.7-0.3c0.2-0.1,15.5-12.3,46-14.1c6.3-0.4,12.5-1.6,18.3-3.7l1.7-0.6
		c12-4.2,25-0.8,37.1,3.5c14.8,5.3,27.8,14.9,41,30.2c2.3,2.7,3.2,7.2,2.3,11.8c-0.8,3.7-2.6,6.8-5,8.7
		c-25.8-36.6-61.6-38.6-63.1-38.6c-1.4,0-2.5,1-2.6,2.4s1,2.5,2.4,2.6c0.1,0,8.9,0.5,20.5,5.2c10.7,4.4,26.2,13.4,38.9,31.5
		c1.6,2.3,2.1,5.1,1.4,7.8c-0.7,2.7-2.6,5-5.1,6.3l-0.3,0.2c-4.2,2-9.3,0.7-12.1-3.1c-20.4-27.8-56-35.6-57.6-35.9
		c-1.3-0.3-2.7,0.6-3,1.9s0.6,2.7,1.9,3c0.3,0.1,24.9,5.5,44.2,22.7l2.1,2.2c1.8,1.9,2.7,4.5,2.5,7.1s-1.4,5-3.4,6.7
		c-3.8,3.3-9.6,3-13.1-0.6c-20.5-20.9-48.2-23.8-49.4-23.9c-1.4-0.1-2.6,0.9-2.7,2.2s0.9,2.6,2.2,2.7c0.2,0,20.6,2.2,38.5,15.6
		c1,1.4,3.3,4.9,2.4,7.9c-0.8,2.5-2.7,4.7-5.2,5.9c-3.4,1.6-7.7,1.4-12.5-0.6c-2.4-1-5.1-2.3-7.9-3.7c-12.1-5.9-27.2-13.2-38.8-7.1
		c-6.2,3.2-11.5,7.8-16.7,12.3c-6.1,5.3-11.9,10.2-18.5,12.5h-71.9c-7.5-1.6-170.8-37.6-214.3-90.4c-0.1-0.3-0.3-0.5-0.5-0.7
		c-4.5-5.7-7.7-11.5-9.1-17.5C89.666,1214.4,93.266,1180.9,105.966,1130.4z M106.166,1263.1c19.1,19,53.9,37.5,104.1,55.3
		c33.2,11.8,66,20.6,86.4,25.7h-176L106.166,1263.1z M29.566,1349.1h288.8l0,0l0,0h72.5l0,0l0,0h206.9v41.9h-568.2V1349.1z
		 M1353.966,1391h-751.2v-41.9h103l0,0l0,0h648.2V1391z"/>
	<path style="fill:#283238;" d="M600.266,1415.8c-1.4,0-2.5,1.1-2.5,2.5v79.1c0,1.4,1.1,2.5,2.5,2.5s2.5-1.1,2.5-2.5v-79.1
		C602.766,1416.9,601.666,1415.8,600.266,1415.8z"/>
	<path style="fill:#283238;" d="M818.866,1236.2l-41.4-157.7c-3.1-11.8-14.2-19.9-26.5-19.1c-7.7,0.5-14.7,4.3-19.3,10.6
		c-4.5,6.3-6,14.1-4,21.6l41.4,157.7c3,11.3,13.3,19.2,24.9,19.2c0.5,0,1.1,0,1.6,0c7.7-0.5,14.7-4.3,19.3-10.6
		C819.366,1251.6,820.866,1243.7,818.866,1236.2z M810.766,1254.9c-3.6,5-9.3,8.2-15.5,8.5c-9.9,0.6-18.8-5.9-21.3-15.4l-41.4-157.7
		c-1.6-6-0.4-12.4,3.3-17.4c3.6-5,9.3-8.2,15.5-8.5c0.4,0,0.8,0,1.3,0c9.3,0,17.6,6.3,20,15.5l41.4,157.7
		C815.666,1243.5,814.466,1249.8,810.766,1254.9z"/>
	<path style="fill:#283238;" d="M464.066,765.4c-1.1-0.8-2.7-0.7-3.5,0.4c-0.8,1.1-0.7,2.7,0.4,3.5l20,15.6l-60.2,353.4
		c-0.2,1.4,0.7,2.7,2,2.9c0.1,0,0.3,0,0.4,0c1.2,0,2.3-0.9,2.5-2.1l60.1-352.9l500.2-27.6c1.4-0.1,2.4-1.3,2.4-2.6
		c-0.1-1.4-1.2-2.5-2.6-2.4l-501.2,27.9L464.066,765.4z"/>
	<path style="fill:#283238;" d="M586.666,827.4c-1.4-0.3-2.7,0.6-2.9,2l-7.7,39.8c-0.3,1.4,0.6,2.7,2,2.9c0.2,0,0.3,0,0.5,0
		c1.2,0,2.2-0.8,2.5-2l7.7-39.8C588.966,829,588.066,827.7,586.666,827.4z"/>
	<path style="fill:#283238;" d="M888.066,809.4c-1.4-0.3-2.7,0.6-2.9,2l-7.7,39.8c-0.3,1.4,0.6,2.7,2,2.9c0.2,0,0.3,0,0.5,0
		c1.2,0,2.2-0.8,2.5-2l7.7-39.8C890.366,811,889.466,809.7,888.066,809.4z"/>
	<path style="fill:#283238;" d="M857.966,811.2c-1.4-0.3-2.7,0.6-2.9,2l-7.7,39.8c-0.3,1.4,0.6,2.7,2,2.9c0.2,0,0.3,0,0.5,0
		c1.2,0,2.2-0.8,2.5-2l7.7-39.8C860.166,812.8,859.266,811.5,857.966,811.2z"/>
	<path style="fill:#283238;" d="M827.766,813c-1.4-0.3-2.7,0.6-2.9,2l-7.7,39.8c-0.3,1.4,0.6,2.7,2,2.9c0.2,0,0.3,0,0.5,0
		c1.2,0,2.2-0.8,2.5-2l7.7-39.8C830.066,814.6,829.166,813.3,827.766,813z"/>
	<path style="fill:#283238;" d="M797.666,814.8c-1.4-0.3-2.7,0.6-2.9,2l-7.7,39.8c-0.3,1.4,0.6,2.7,2,2.9c0.2,0,0.3,0,0.5,0
		c1.2,0,2.2-0.8,2.5-2l7.7-39.8C799.866,816.4,799.066,815.1,797.666,814.8z"/>
	<path style="fill:#283238;" d="M767.566,816.6c-1.4-0.3-2.7,0.6-2.9,2l-7.7,39.8c-0.3,1.4,0.6,2.7,2,2.9c0.2,0,0.3,0,0.5,0
		c1.2,0,2.2-0.8,2.5-2l7.7-39.8C769.766,818.2,768.866,816.9,767.566,816.6z"/>
	<path style="fill:#283238;" d="M737.366,818.4c-1.4-0.3-2.7,0.6-2.9,2l-7.7,39.8c-0.3,1.4,0.6,2.7,2,2.9c0.2,0,0.3,0,0.5,0
		c1.2,0,2.2-0.8,2.5-2l7.7-39.8C739.666,820,738.766,818.7,737.366,818.4z"/>
	<path style="fill:#283238;" d="M707.266,820.2c-1.4-0.3-2.7,0.6-2.9,2l-7.7,39.8c-0.3,1.4,0.6,2.7,2,2.9c0.2,0,0.3,0,0.5,0
		c1.2,0,2.2-0.8,2.5-2l7.7-39.8C709.466,821.8,708.566,820.5,707.266,820.2z"/>
	<path style="fill:#283238;" d="M646.966,823.8c-1.4-0.3-2.7,0.6-2.9,2l-7.7,39.8c-0.3,1.4,0.6,2.7,2,2.9c0.2,0,0.3,0,0.5,0
		c1.2,0,2.2-0.8,2.5-2l7.7-39.8C649.266,825.4,648.366,824.1,646.966,823.8z"/>
	<path style="fill:#283238;" d="M616.866,825.6c-1.4-0.3-2.7,0.6-2.9,2l-7.7,39.8c-0.3,1.4,0.6,2.7,2,2.9c0.2,0,0.3,0,0.5,0
		c1.2,0,2.2-0.8,2.5-2l7.7-39.8C619.066,827.2,618.166,825.9,616.866,825.6z"/>
	<path style="fill:#283238;" d="M677.066,822c-1.4-0.3-2.7,0.6-2.9,2l-7.7,39.8c-0.3,1.4,0.6,2.7,2,2.9c0.2,0,0.3,0,0.5,0
		c1.2,0,2.2-0.8,2.5-2l7.7-39.8C679.366,823.6,678.466,822.3,677.066,822z"/>
	<path style="fill:#283238;" d="M760.366,699.7c0.3,0.1,0.6,0.2,0.9,0.2c1,0,1.9-0.6,2.3-1.6l34.6-86.3c0.5-1.3-0.1-2.7-1.4-3.3
		c-1.3-0.5-2.7,0.1-3.3,1.4l-34.5,86.3C758.466,697.7,759.066,699.2,760.366,699.7z"/>
	<path style="fill:#283238;" d="M736.066,519.7c-1.4-0.2-2.6,0.7-2.9,2.1l-28.8,177.8c-0.2,1.4,0.7,2.6,2.1,2.9c0.1,0,0.3,0,0.4,0
		c1.2,0,2.3-0.9,2.5-2.1l28.8-177.8C738.266,521.2,737.366,520,736.066,519.7z"/>
	<path style="fill:#283238;" d="M820.866,696.8c0.4,0.2,0.9,0.4,1.3,0.4c0.8,0,1.7-0.4,2.1-1.2l14-23.1c0.7-1.2,0.3-2.7-0.8-3.4
		c-1.2-0.7-2.7-0.3-3.4,0.8l-14,23.1C819.366,694.6,819.766,696.1,820.866,696.8z"/>
	<path style="fill:#283238;" d="M514.766,644.6c6.1,0,11-6.1,11-13.6s-5-13.5-11.1-13.5c-6.1,0-11,6.1-11,13.6
		S508.666,644.7,514.766,644.6z"/>
	<path style="fill:#283238;" d="M597.166,633.5c5.5,0,10-5.4,10-12.2c0-6.7-4.4-12.2-9.9-12.2s-10,5.4-10,12.2
		C587.266,628,591.666,633.5,597.166,633.5z"/>
	<path style="fill:#283238;" d="M564.966,636.7c-0.4-1.3-1.8-2-3.2-1.6c-1.3,0.4-2,1.8-1.6,3.2l14.8,45.1l-17.6,5.6
		c-1.3,0.4-2,1.8-1.6,3.1c0.3,1.1,1.3,1.7,2.4,1.7c0.3,0,0.5,0,0.8-0.1l20-6.4c0.6-0.2,1.2-0.6,1.5-1.2c0.3-0.6,0.4-1.3,0.2-1.9
		L564.966,636.7z"/>
	<path style="fill:#283238;" d="M575.666,722.8c-29,6.1-60-6.4-60.3-6.6c-1.3-0.5-2.7,0.1-3.3,1.4c-0.5,1.3,0.1,2.7,1.4,3.3
		c1.1,0.4,21.3,8.6,45,8.6c5.9,0,12.1-0.5,18.2-1.8c1.4-0.3,2.2-1.6,1.9-3C578.266,723.4,576.966,722.5,575.666,722.8z"/>
	<path style="fill:#283238;" d="M114.066,827.3l18.4,65.3c0.3,1.1,1.3,1.8,2.4,1.8c0.2,0,0.5,0,0.7-0.1c1.3-0.4,2.1-1.8,1.7-3.1
		l-18.4-65.3c-5.2-18.6-19.1-33.9-37.1-41c-1.3-0.5-2.7,0.1-3.2,1.4c-0.5,1.3,0.1,2.7,1.4,3.2
		C96.466,796.2,109.266,810.3,114.066,827.3z"/>
	<path style="fill:#283238;" d="M1473.666,0h-621.8c-1.4,0-2.5,1.1-2.5,2.5v612.9c0,1.4,1.1,2.5,2.5,2.5h621.8
		c1.4,0,2.5-1.1,2.5-2.5V2.5C1476.166,1.1,1474.966,0,1473.666,0z M1471.166,5v58.1h-616.8V5H1471.166z M854.366,612.9V68.1h616.8
		v544.7h-616.8V612.9z"/>
	<path style="fill:#283238;" d="M898.866,46.5c6.2,0,11.2-5,11.2-11.2s-5-11.2-11.2-11.2s-11.2,5-11.2,11.2
		S892.766,46.5,898.866,46.5z M898.866,29.1c3.4,0,6.2,2.8,6.2,6.2s-2.8,6.2-6.2,6.2s-6.2-2.8-6.2-6.2S895.466,29.1,898.866,29.1z"
		/>
	<path style="fill:#283238;" d="M938.966,46.5c6.2,0,11.2-5,11.2-11.2s-5-11.2-11.2-11.2s-11.2,5-11.2,11.2
		S932.766,46.5,938.966,46.5z M938.966,29.1c3.4,0,6.2,2.8,6.2,6.2s-2.8,6.2-6.2,6.2s-6.2-2.8-6.2-6.2S935.566,29.1,938.966,29.1z"
		/>
	<path style="fill:#283238;" d="M979.066,46.5c6.2,0,11.2-5,11.2-11.2s-5-11.2-11.2-11.2s-11.2,5-11.2,11.2
		C967.866,41.5,972.866,46.5,979.066,46.5z M979.066,29.1c3.4,0,6.2,2.8,6.2,6.2s-2.8,6.2-6.2,6.2s-6.2-2.8-6.2-6.2
		C972.866,31.9,975.566,29.1,979.066,29.1z"/>
	<path style="fill:#283238;" d="M936.766,275.9h225.7l25.2,20.9c3.9,3.3,8.7,4.9,13.5,4.9c3.1,0,6.1-0.7,9.1-2
		c7.5-3.5,12.2-10.9,12.2-19.2V150.7c0-14.7-12-26.7-26.7-26.7h-259c-14.7,0-26.7,12-26.7,26.7v98.6
		C910.066,264,922.066,275.9,936.766,275.9z M915.066,150.7c0-11.9,9.7-21.7,21.7-21.7h258.9c11.9,0,21.7,9.7,21.7,21.7v129.9
		c0,6.4-3.6,12-9.3,14.7c-5.8,2.7-12.4,1.9-17.2-2.2l-25.8-21.5c-0.4-0.4-1-0.6-1.6-0.6h-226.7c-11.9,0-21.7-9.7-21.7-21.7V150.7z"
		/>
	<path style="fill:#283238;" d="M1346.366,129.6c-39.3,0-71.3,32-71.3,71.3s32,71.3,71.3,71.3s71.3-32,71.3-71.3
		S1385.766,129.6,1346.366,129.6z M1300.966,249.2c6.3-23.5,24.8-39.8,45.4-39.8s39.2,16.3,45.4,39.8
		c-11.9,11.2-27.9,18.1-45.4,18.1S1312.866,260.4,1300.966,249.2z M1395.866,245.1c-6.1-19.5-20.2-34-37-38.9
		c8-4.4,13.5-13,13.5-22.8c0-14.3-11.6-26-26-26s-26,11.6-26,26c0,9.8,5.5,18.3,13.5,22.8c-16.8,4.9-30.9,19.4-37,38.9
		c-10.5-11.7-16.9-27.2-16.9-44.2c0-36.6,29.8-66.3,66.3-66.3s66.3,29.8,66.3,66.3C1412.766,217.9,1406.366,233.4,1395.866,245.1z
		 M1346.366,204.4c-11.6,0-21-9.4-21-21s9.4-21,21-21s21,9.4,21,21S1357.966,204.4,1346.366,204.4z"/>
	<path style="fill:#283238;" d="M955.066,163.5h219.5c1.4,0,2.5-1.1,2.5-2.5s-1.1-2.5-2.5-2.5h-219.5c-1.4,0-2.5,1.1-2.5,2.5
		S953.666,163.5,955.066,163.5z"/>
	<path style="fill:#283238;" d="M955.066,189.7h219.5c1.4,0,2.5-1.1,2.5-2.5s-1.1-2.5-2.5-2.5h-219.5c-1.4,0-2.5,1.1-2.5,2.5
		S953.666,189.7,955.066,189.7z"/>
	<path style="fill:#283238;" d="M955.066,216h219.5c1.4,0,2.5-1.1,2.5-2.5s-1.1-2.5-2.5-2.5h-219.5c-1.4,0-2.5,1.1-2.5,2.5
		S953.666,216,955.066,216z"/>
	<path style="fill:#283238;" d="M955.066,242.2h111.2c1.4,0,2.5-1.1,2.5-2.5s-1.1-2.5-2.5-2.5h-111.2c-1.4,0-2.5,1.1-2.5,2.5
		S953.666,242.2,955.066,242.2z"/>
	<path style="fill:#283238;" d="M1391.066,350h-258.9c-14.7,0-26.7,12-26.7,26.7v129.9c0,8.3,4.7,15.7,12.2,19.2c2.9,1.4,6,2,9.1,2
		c4.8,0,9.6-1.7,13.5-4.9l25.2-20.9h225.7c14.7,0,26.7-12,26.7-26.7v-98.6C1417.766,362,1405.766,350,1391.066,350z M1412.766,475.3
		c0,11.9-9.7,21.7-21.7,21.7h-226.6c-0.6,0-1.1,0.2-1.6,0.6l-25.8,21.5c-4.9,4.1-11.5,4.9-17.2,2.2c-5.8-2.7-9.3-8.3-9.3-14.7V376.7
		c0-11.9,9.7-21.7,21.7-21.7h258.9c11.9,0,21.7,9.7,21.7,21.7L1412.766,475.3L1412.766,475.3z"/>
	<path style="fill:#283238;" d="M981.466,355.7c-39.3,0-71.3,32-71.3,71.3s32,71.3,71.3,71.3s71.3-32,71.3-71.3
		S1020.766,355.7,981.466,355.7z M935.966,475.3c6.3-23.5,24.8-39.8,45.4-39.8c20.6,0,39.2,16.3,45.4,39.8
		c-11.9,11.2-27.9,18.1-45.4,18.1S947.866,486.5,935.966,475.3z M1030.866,471.2c-6.1-19.5-20.2-34-37-38.9c8-4.4,13.5-13,13.5-22.8
		c0-14.3-11.6-26-26-26s-26,11.6-26,26c0,9.8,5.5,18.3,13.5,22.8c-16.8,4.9-30.9,19.4-37,38.9c-10.5-11.7-16.9-27.2-16.9-44.2
		c0-36.6,29.8-66.3,66.3-66.3s66.3,29.8,66.3,66.3C1047.766,444,1041.366,459.4,1030.866,471.2z M981.466,430.5
		c-11.6,0-21-9.4-21-21s9.4-21,21-21s21,9.4,21,21S992.966,430.5,981.466,430.5z"/>
	<path style="fill:#283238;" d="M1372.866,384.6h-219.5c-1.4,0-2.5,1.1-2.5,2.5s1.1,2.5,2.5,2.5h219.5c1.4,0,2.5-1.1,2.5-2.5
		S1374.166,384.6,1372.866,384.6z"/>
	<path style="fill:#283238;" d="M1372.866,410.8h-219.5c-1.4,0-2.5,1.1-2.5,2.5s1.1,2.5,2.5,2.5h219.5c1.4,0,2.5-1.1,2.5-2.5
		S1374.166,410.8,1372.866,410.8z"/>
	<path style="fill:#283238;" d="M1372.866,437h-219.5c-1.4,0-2.5,1.1-2.5,2.5s1.1,2.5,2.5,2.5h219.5c1.4,0,2.5-1.1,2.5-2.5
		S1374.166,437,1372.866,437z"/>
	<path style="fill:#283238;" d="M1372.866,463.2h-111.2c-1.4,0-2.5,1.1-2.5,2.5s1.1,2.5,2.5,2.5h111.2c1.4,0,2.5-1.1,2.5-2.5
		S1374.166,463.2,1372.866,463.2z"/>
	<path style="fill:#283238;" d="M1155.166,995.2c21.3,12.3,44.6,18.2,67.6,18.2c46.9,0,92.7-24.3,117.8-67.8
		c18.1-31.4,22.9-68,13.6-103c-9.4-35-31.8-64.3-63.2-82.4c-31.4-18.1-68-22.9-103-13.6c-35,9.4-64.3,31.8-82.4,63.2
		s-22.9,68-13.6,103S1123.766,977.1,1155.166,995.2z M1109.766,812.3c17.5-30.2,45.7-51.9,79.4-60.9c11.3-3,22.7-4.5,34.1-4.5
		c22.7,0,45,5.9,65.2,17.6c30.2,17.5,51.9,45.7,60.9,79.4s4.4,69-13.1,99.2s-45.7,51.9-79.4,60.9c-33.7,9-69,4.4-99.2-13.1
		s-51.9-45.7-60.9-79.4C1087.666,877.8,1092.366,842.5,1109.766,812.3z"/>
	<path style="fill:#283238;" d="M642.666,308.8c52.6,0,95.3-42.8,95.3-95.3c0-52.6-42.8-95.3-95.3-95.3s-95.3,42.8-95.3,95.3
		S590.066,308.8,642.666,308.8z M642.666,123.1c49.8,0,90.3,40.5,90.3,90.3s-40.5,90.3-90.3,90.3s-90.3-40.5-90.3-90.3
		S592.866,123.1,642.666,123.1z"/>
	<path style="fill:#283238;" d="M634.366,242.9c0.5,0.5,1.1,0.7,1.8,0.7s1.3-0.2,1.8-0.7l41.8-41.8c1-1,1-2.6,0-3.5
		c-1-1-2.6-1-3.5,0l-40,40l-24.3-24.3c-1-1-2.6-1-3.5,0c-1,1-1,2.6,0,3.5L634.366,242.9z"/>
	<path style="fill:#283238;" d="M1205.066,908.8c-4.5-2.6-9.7-3.3-14.7-1.9c-5,1.3-9.2,4.6-11.8,9c-2.6,4.5-3.3,9.7-1.9,14.7
		c2.3,8.7,10.2,14.4,18.7,14.4c1.7,0,3.3-0.2,5-0.7c5-1.3,9.2-4.6,11.8-9c2.6-4.5,3.3-9.7,1.9-14.7
		C1212.766,915.6,1209.566,911.4,1205.066,908.8z M1207.766,932.8c-1.9,3.3-5,5.7-8.7,6.7c-7.7,2.1-15.6-2.5-17.6-10.2
		c-1-3.7-0.5-7.6,1.4-10.9s5-5.7,8.7-6.7c1.2-0.3,2.5-0.5,3.8-0.5c2.5,0,5,0.7,7.2,1.9c3.3,1.9,5.7,5,6.7,8.7
		C1210.266,925.6,1209.766,929.5,1207.766,932.8z"/>
	<path style="fill:#283238;" d="M1175.366,873.7c-1.3,0.4-2.1,1.7-1.8,3.1c0.4,1.3,1.7,2.1,3.1,1.8c29.9-8,60.8,9.8,68.9,39.8
		c0.3,1.1,1.3,1.9,2.4,1.9c0.2,0,0.4,0,0.6-0.1c1.3-0.4,2.1-1.7,1.8-3.1C1241.566,884.3,1207.966,864.9,1175.366,873.7z"/>
	<path style="fill:#283238;" d="M1238.566,850.8c-22-12.7-47.5-16-71.9-9.5c-1.3,0.4-2.1,1.7-1.8,3.1c0.4,1.3,1.7,2.1,3.1,1.8
		c23.1-6.2,47.3-3,68.1,9c20.8,12,35.7,31.4,41.9,54.5c0.3,1.1,1.3,1.9,2.4,1.9c0.2,0,0.4,0,0.6-0.1c1.3-0.4,2.1-1.7,1.8-3.1
		C1276.166,883.9,1260.566,863.4,1238.566,850.8z"/>
	<path style="fill:#283238;" d="M1159.266,813.7c65.7-17.6,133.5,21.5,151.1,87.2c0.3,1.1,1.3,1.9,2.4,1.9c0.2,0,0.4,0,0.6-0.1
		c1.3-0.4,2.1-1.7,1.8-3.1c-18.3-68.4-88.8-109.1-157.2-90.7c-1.3,0.4-2.1,1.7-1.8,3.1C1156.566,813.2,1157.966,814,1159.266,813.7z
		"/>
</g>
</svg>
